<svg xmlns="http://www.w3.org/2000/svg" width="53.073" height="64.292" viewBox="0 0 53.073 64.292">
  <g id="Group_550" data-name="Group 550" transform="translate(-5886.468 -13036.559)">
    <path id="Path_92" data-name="Path 92" d="M35.939,0V51.307c-7.963-.7-17.495,6.591-24.953,12.985v-40.1c4.7-8,13.4-16.072,24.953-24.188" transform="translate(5903.601 13036.559)" fill="#e57938"/>
    <path id="Path_93" data-name="Path 93" d="M30.595,0V44.524c-5.9-.773-14.718,7.226-19.609,14.221V19.01A54.7,54.7,0,0,1,30.595,0" transform="translate(5903.601 13036.559)" fill="#f9843d"/>
    <path id="Path_94" data-name="Path 94" d="M0,0V51.307c7.963-.7,17.495,6.591,24.953,12.985v-40.1C20.249,16.184,11.554,8.116,0,0" transform="translate(5886.468 13036.559)" fill="#e57938"/>
    <path id="Path_95" data-name="Path 95" d="M2.088,0V44.524c5.9-.773,14.718,7.226,19.609,14.221V19.01A54.7,54.7,0,0,0,2.088,0" transform="translate(5889.724 13036.559)" fill="#f9843d"/>
  </g>
</svg>
